#!OML:ASF H:\Dans Jumps\Project 1\Capture day 1\Session 1\subject.ASF
:FULLY-SPECIFIED
:DEGREES
289
root 0.483521 17.5488 -2.87895 8.11556 -0.409734 -1.21184
lowerback 2.22545 0.778795 -0.401567
upperback 4.00795 1.01301 1.05885
thorax 2.84186 0.476675 1.31544
lowerneck -11.8693 -0.882451 -2.31036
upperneck 34.0727 -1.43022 2.22663
head 13.4918 -0.618854 1.08084
rclavicle -5.2181e-015 -6.95746e-015
rhumerus -17.9135 -18.9452 -80.8809
rradius 23.2464
rwrist 34.4339
rhand -21.1145 -25.7697
rfingers 7.12502
rthumb 5.26375 -55.6843
lclavicle -5.2181e-015 -6.95746e-015
lhumerus -24.9013 -3.27953 90.5721
lradius 19.3368
lwrist 11.481
lhand -27.466 -4.53096
lfingers 7.12502
lthumb -0.870168 25.447
rfemur -22.4749 -0.789906 18.3164
rtibia 30.1765
rfoot -14.2344 1.31665
rtoes 13.2199
lfemur -21.5755 7.20495 -18.3997
ltibia 28.2948
lfoot -11.2052 5.72178
ltoes 0.245498
290
root 0.486299 17.5559 -2.86233 8.11961 -0.431175 -1.23034
lowerback 2.16709 0.753165 -0.397991
upperback 3.9984 0.97864 1.06961
thorax 2.86554 0.459343 1.32521
lowerneck -11.8683 -0.863385 -2.29219
upperneck 34.0947 -1.38605 2.16173
head 13.4992 -0.606198 1.05854
rclavicle 3.18055e-015 -6.36111e-015
rhumerus -17.8558 -18.769 -81.0374
rradius 23.3118
rwrist 34.2356
rhand -21.1034 -25.7675
rfingers 7.12502
rthumb 5.27451 -55.6819
lclavicle 3.18055e-015 -6.36111e-015
lhumerus -24.8107 -3.27378 90.6011
lradius 19.2768
lwrist 11.2604
lhand -27.5755 -4.60509
lfingers 7.12502
lthumb -0.975916 25.3724
rfemur -22.3026 -0.758433 18.33
rtibia 29.9565
rfoot -14.1864 1.26641
rtoes 13.1408
lfemur -21.4041 7.17712 -18.3809
ltibia 28.0939
lfoot -11.1429 5.75597
ltoes 0.311892
291
root 0.488908 17.5625 -2.84591 8.12255 -0.448243 -1.25132
lowerback 2.10739 0.726098 -0.392202
upperback 3.98949 0.942295 1.08232
thorax 2.89072 0.441051 1.33572
lowerneck -11.8624 -0.841932 -2.26945
upperneck 34.1123 -1.33793 2.09197
head 13.5035 -0.591895 1.03404
rclavicle -9.29318e-015 -4.96962e-015
rhumerus -17.8155 -18.5916 -81.1878
rradius 23.3788
rwrist 34.0303
rhand -21.0895 -25.7791
rfingers 7.12502
rthumb 5.28789 -55.6932
lclavicle -9.29318e-015 -4.96962e-015
lhumerus -24.7298 -3.25003 90.6256
lradius 19.2177
lwrist 11.0789
lhand -27.6332 -4.58564
lfingers 7.12502
lthumb -1.03161 25.3916
rfemur -22.1312 -0.723893 18.3463
rtibia 29.7431
rfoot -14.1438 1.21112
rtoes 13.0817
lfemur -21.2381 7.14131 -18.3578
ltibia 27.9041
lfoot -11.0873 5.79832
ltoes 0.372048
292
root 0.491334 17.5687 -2.8296 8.1228 -0.462289 -1.27207
lowerback 2.04795 0.69786 -0.387773
upperback 3.98135 0.90433 1.0967
thorax 2.91655 0.421879 1.34863
lowerneck -11.8481 -0.82035 -2.25135
upperneck 34.1244 -1.29044 2.02795
head 13.5037 -0.57775 1.01249
rclavicle 1.30701e-014 -1.59028e-015
rhumerus -17.7917 -18.4244 -81.3283
rradius 23.4394
rwrist 33.8378
rhand -21.071 -25.7946
rfingers 7.12502
rthumb 5.30576 -55.7082
lclavicle 1.30701e-014 -1.59028e-015
lhumerus -24.6585 -3.20398 90.645
lradius 19.1604
lwrist 10.9346
lhand -27.6388 -4.52649
lfingers 7.12502
lthumb -1.03706 25.4507
rfemur -21.9596 -0.686791 18.3622
rtibia 29.5368
rfoot -14.105 1.1542
rtoes 13.0581
lfemur -21.0733 7.10113 -18.3336
ltibia 27.7212
lfoot -11.0361 5.84728
ltoes 0.404947
